# xmcd
#
# Track frame offsets:
# 183
# 18863
# 37493
#
# Disc length: 760 seconds
#
# Revision: 0
# Processed by: cddbd v1.5.1PL0 Copyright (c) Steve Scherf et al.
# Submitted via: Coin'sHifi 0.9 coinshifi@hotmail.fr
#
DISCID=2002f603
DTITLE=Mécano - Une Femme Avec Une Femme
DYEAR=1990
DGENRE=blues
TTITLE0=Une Femme Avec Une Femme
TTITLE1=Mujer Contra Mujer
TTITLE2=Hijo De La Luna
EXTD=
EXTT0=
EXTT1=
EXTT2=
PLAYORDER=
